<?xml version="1.0" standalone="no"?>
<!DOCTYPE svg PUBLIC "-//W3C//DTD SVG 20010904//EN"
 "http://www.w3.org/TR/2001/REC-SVG-20010904/DTD/svg10.dtd">
<svg version="1.0" xmlns="http://www.w3.org/2000/svg"
 viewBox="0 0 2600.000000 2600.000000"
 preserveAspectRatio="xMidYMid meet">
<metadata>
Created by potrace 1.15, written by Peter Selinger 2001-2017
</metadata>
<g transform="translate(0.000000,2600.000000) scale(0.100000,-0.100000)"
fill="#000000" stroke="none">
<path d="M12712 24520 c-1486 -77 -2532 -456 -3247 -1175 -384 -386 -673 -885
-845 -1460 -144 -479 -210 -897 -275 -1735 -33 -427 -51 -589 -80 -737 -39
-190 -50 -215 -203 -439 -88 -129 -114 -178 -152 -293 -57 -169 -57 -321 -1
-540 34 -133 38 -186 16 -218 -8 -12 -66 -60 -128 -106 -502 -379 -873 -898
-1084 -1522 -124 -368 -195 -788 -197 -1180 -1 -258 16 -307 80 -237 22 23 44
63 123 232 6 14 9 16 6 6 -165 -560 -212 -761 -171 -727 7 6 41 64 75 129 69
130 88 159 97 149 9 -8 1 -49 -89 -497 -204 -1010 -317 -1914 -358 -2875 -14
-325 -7 -1188 12 -1557 12 -245 12 -268 -9 -485 -45 -471 -55 -805 -24 -860
28 -51 63 -24 137 104 26 46 51 80 56 77 5 -3 9 -47 9 -97 0 -347 105 -697
291 -977 83 -126 281 -324 414 -416 117 -81 340 -195 477 -244 94 -34 97 -36
108 -74 34 -113 192 -365 363 -579 313 -391 730 -765 989 -885 40 -19 56 -32
53 -42 -2 -8 -43 -175 -90 -370 -188 -780 -348 -1370 -403 -1492 -37 -80 -154
-237 -262 -351 -206 -217 -414 -337 -639 -367 -68 -9 -108 -8 -218 5 -147 18
-228 12 -321 -23 -71 -27 -160 -92 -227 -164 -110 -118 -179 -240 -398 -701
l-66 -138 59 53 c32 29 122 89 199 133 163 91 228 138 256 182 27 43 42 47 84
25 20 -11 70 -37 112 -60 102 -54 171 -68 243 -49 54 13 54 13 44 -8 -21 -47
45 -118 170 -181 39 -20 54 -33 57 -53 16 -80 59 -182 146 -344 54 -100 101
-182 105 -182 4 0 22 23 38 51 17 27 72 108 122 180 50 71 102 148 115 171 19
33 30 43 50 43 53 0 89 39 163 176 82 151 129 216 200 275 66 54 193 114 292
138 72 17 82 17 109 3 55 -28 159 -146 262 -299 135 -198 202 -281 273 -337
80 -63 157 -97 251 -110 73 -10 81 -14 110 -49 40 -48 69 -49 105 -2 14 19 33
35 41 35 30 0 112 51 142 88 70 89 96 192 95 377 -2 266 -85 538 -231 756 -41
62 -112 135 -227 234 -156 133 -152 555 9 1211 76 307 198 682 264 812 21 42
23 43 44 28 148 -106 378 -173 727 -213 217 -24 830 -24 1120 0 433 37 855
107 983 162 16 7 17 -2 17 -112 0 -235 34 -538 85 -766 49 -221 130 -429 221
-570 91 -140 36 -235 -300 -514 -366 -305 -474 -459 -465 -661 3 -66 10 -90
41 -153 46 -93 124 -186 222 -268 42 -34 83 -76 92 -92 19 -39 34 -165 34
-304 1 -178 31 -286 106 -373 57 -67 80 -73 41 -11 -28 46 -32 61 -32 124 0
64 4 81 42 156 l42 84 168 0 c145 0 178 4 239 22 141 45 184 100 209 274 20
135 38 188 78 229 38 39 112 75 183 90 50 11 52 10 105 -26 154 -105 440 -185
880 -249 324 -46 574 -66 919 -71 392 -7 367 1 545 -164 118 -109 221 -188
232 -176 15 15 -55 233 -117 364 -141 296 -358 501 -672 632 -142 59 -309 104
-634 170 -430 88 -533 125 -634 230 -195 203 -403 793 -564 1602 -79 395 -141
815 -134 908 3 42 4 43 58 60 292 91 808 510 1412 1148 128 134 148 152 176
152 57 0 106 -63 210 -266 51 -100 108 -198 126 -218 42 -45 81 -48 117 -10
13 14 42 36 64 47 65 36 239 30 484 -16 293 -56 339 -50 331 40 -2 34 40 69
98 82 28 6 124 15 214 21 272 18 360 35 409 81 38 36 40 95 4 158 -14 23 -25
49 -25 55 0 24 38 48 142 88 116 45 168 79 168 110 0 39 -83 105 -207 164 -83
40 -112 58 -102 65 8 5 138 9 289 9 276 0 346 7 357 36 16 43 -105 106 -427
220 -69 25 -128 48 -132 52 -4 4 34 4 85 -1 119 -11 254 -5 292 14 32 15 41
42 30 87 -3 14 -38 58 -76 97 l-70 72 48 -7 c27 -5 125 -25 218 -45 201 -44
335 -56 335 -32 0 19 -25 37 -165 117 -342 194 -496 339 -482 456 7 63 43 104
160 183 209 140 361 299 526 547 143 215 259 473 279 623 5 33 12 64 16 68 4
4 38 -26 76 -67 58 -64 71 -73 86 -64 30 18 35 60 33 304 -2 165 2 250 11 285
20 76 69 178 168 347 172 291 239 484 272 776 16 137 8 523 -15 713 -10 82
-15 163 -11 184 7 36 9 37 39 30 18 -3 48 -7 67 -8 29 -2 37 3 49 28 20 41 26
221 12 375 -21 217 -25 381 -12 471 7 46 37 199 66 339 104 495 141 806 160
1330 19 498 -109 956 -382 1375 -133 203 -273 356 -508 554 -66 56 -148 134
-182 173 -81 92 -103 149 -103 266 0 71 -5 96 -24 137 -25 53 -97 141 -158
194 -89 78 -121 276 -163 1016 -46 814 -102 1348 -196 1870 -344 1919 -1194
3199 -2554 3851 -568 272 -1177 427 -1925 489 -219 19 -835 27 -1068 15z
m-2464 -2792 c37 -11 97 -34 134 -50 l67 -30 -78 -77 c-123 -121 -187 -235
-211 -373 -25 -142 25 -292 131 -393 71 -68 132 -97 219 -102 212 -15 366 184
410 529 5 45 12 83 15 86 9 10 164 -157 171 -184 18 -69 -51 -226 -154 -355
-161 -201 -396 -330 -575 -316 -269 22 -426 303 -468 837 -15 190 -9 312 19
366 47 93 154 113 320 62z m4637 8 c68 -21 136 -68 169 -115 44 -63 56 -120
56 -265 0 -418 -116 -708 -326 -814 -111 -56 -164 -67 -324 -66 -470 1 -857
235 -935 565 -30 129 -17 177 72 270 51 54 248 198 257 188 2 -2 -8 -47 -22
-99 -33 -124 -37 -306 -8 -390 55 -164 166 -268 332 -310 225 -58 471 27 584
201 126 196 80 478 -127 766 -29 41 -53 76 -53 78 0 19 257 12 325 -9z m-2771
-1219 c57 -59 102 -137 217 -380 96 -205 106 -253 90 -426 -21 -208 -63 -397
-224 -996 -102 -377 -134 -517 -145 -641 l-7 -79 -42 105 c-63 158 -115 308
-187 543 -165 539 -247 919 -249 1142 -1 128 -4 121 169 423 210 365 274 418
378 309z"/>
</g>
</svg>
