<?xml version="1.0" standalone="no"?>
<!DOCTYPE svg PUBLIC "-//W3C//DTD SVG 20010904//EN"
 "http://www.w3.org/TR/2001/REC-SVG-20010904/DTD/svg10.dtd">
<svg version="1.0" xmlns="http://www.w3.org/2000/svg"
 viewBox="0 0 2600.000000 2604.000000"
 preserveAspectRatio="xMidYMid meet">
<metadata>
Created by potrace 1.13, written by Peter Selinger 2001-2015
</metadata>
<g transform="translate(0.000000,2604.000000) scale(0.100000,-0.100000)"
fill="#000000" stroke="none">
<path d="M11881 16674 c-97 -21 -168 -60 -242 -133 -73 -74 -115 -150 -148
-271 -36 -135 -43 -235 -36 -555 7 -320 1 -419 -36 -555 -41 -151 -115 -264
-241 -364 -168 -134 -358 -219 -802 -357 -160 -50 -390 -128 -511 -174 -446
-168 -539 -190 -780 -189 -156 0 -185 3 -349 37 -217 45 -371 60 -483 47 -99
-11 -147 -30 -196 -78 -49 -48 -70 -108 -97 -277 -24 -153 -48 -237 -84 -293
-66 -102 -195 -180 -506 -304 -69 -27 -226 -95 -350 -150 -408 -181 -543 -214
-840 -205 -349 11 -564 83 -1120 373 -151 78 -349 176 -440 217 -313 141 -464
223 -880 482 -390 243 -441 267 -945 455 -199 74 -376 148 -525 220 -468 226
-709 310 -889 310 -157 0 -253 -72 -253 -190 0 -124 116 -245 432 -452 122
-80 367 -267 565 -432 518 -431 853 -805 1113 -1241 39 -67 115 -175 168 -240
205 -255 244 -337 260 -546 12 -154 -22 -710 -78 -1284 -47 -481 -42 -726 18
-915 44 -141 117 -218 213 -228 164 -15 284 82 632 515 116 144 229 272 312
352 171 167 319 333 567 636 112 138 256 311 320 385 64 75 159 201 212 280
213 324 305 402 549 464 167 43 568 83 929 93 366 10 473 -32 597 -237 84
-138 135 -173 254 -172 119 1 249 43 582 186 245 105 291 119 537 160 909 151
1477 118 1995 -116 260 -117 408 -168 549 -187 178 -25 320 -8 601 69 289 80
378 96 915 164 600 77 871 96 1379 97 308 0 523 8 823 30 384 28 598 -36 684
-203 40 -77 24 -227 -43 -408 -98 -265 -384 -760 -584 -1009 -141 -177 -192
-256 -211 -324 -11 -43 -10 -49 8 -74 40 -54 85 -68 224 -67 224 1 417 55 592
168 357 228 627 462 1233 1071 469 471 514 509 672 575 153 64 226 74 543 74
157 1 438 -5 625 -13 584 -23 1102 9 1910 120 706 96 909 147 1480 371 126 50
331 128 455 174 447 167 497 187 619 245 216 103 374 221 542 404 395 432 592
840 525 1090 -41 156 -145 251 -396 361 -208 91 -441 156 -900 253 -157 33
-424 92 -595 130 -898 202 -1434 295 -2615 457 -1579 215 -2199 280 -2995 314
-680 28 -1443 -4 -1908 -81 -381 -63 -447 -70 -683 -76 -556 -14 -695 34
-1339 457 -343 225 -409 264 -586 349 -405 194 -718 265 -948 215z"/>
</g>
</svg>
